<svg width="369" height="64" id="logo" viewBox="0 0 369 64" fill="none" xmlns="http://www.w3.org/2000/svg">
<path d="M37.4254 30.8976C40.1791 28.5468 42.194 25.5244 43.5373 21.8304C44.8806 18.1364 45.5522 14.6438 45.5522 11.2856C45.5522 2.62145 38.903 0.270702 34 0.270702C29.7687 0.203539 26.8134 1.41249 26.2761 1.61398L26.209 1.68115C26.2761 1.68115 26.2761 2.82294 26.2761 5.03936V11.8901C26.209 15.0468 26.209 16.9946 26.209 17.7334C26.209 20.7558 24.6642 22.3006 21.6418 22.3006C21.0373 22.3006 20.7015 22.3006 20.5672 22.2334C20.3657 22.2334 20.1642 22.2334 20.097 22.1662C20.097 20.2185 20.097 18.6737 20.1642 17.6662C20.1642 16.7931 20.1642 15.3826 20.2313 13.3677V8.86772C20.2313 3.42742 15.6642 0.405029 9.68657 0.405029C7.26866 0.405029 4.91791 0.808017 2.70149 1.61398C1.5597 1.94981 0.686567 2.35279 0.0149252 2.82294C0.0820893 9.20354 0.149254 14.8453 0.216418 19.6811C0.216418 26.5319 0.41791 33.114 0.41791 35.7334L0.485074 36.6737C0.485074 44.7334 4.3806 48.7632 12.1716 48.7632C18.0821 48.7632 19.8284 44.0617 19.8284 43.8603V35.0617H21.1716C21.709 35.0617 23.0522 34.9946 23.3881 34.9946C23.7239 37.4125 24.7313 40.1662 26.6791 43.3229C28.5597 46.5468 32.1866 48.8976 36.5522 48.8976C37.1567 48.8976 37.694 48.9647 39.6418 48.3602C42.194 47.6886 44.8806 45.7408 45.8209 41.0394L37.4254 30.8976ZM46.5319 14.4423C46.5319 18.1364 47.9423 20.6886 49.8901 21.6289C51.8379 22.5692 52.9796 22.8379 54.1214 22.8379H54.3901C56.7408 22.8379 58.8229 22.0319 60.5692 20.3528C62.3155 18.6737 63.1886 16.7259 63.1886 14.3752L65.002 15.3826C65.002 18.2035 63.9946 20.6214 61.9125 22.6364C59.8304 24.6513 57.2782 25.6588 54.3901 25.6588C53.0468 25.6588 51.7707 25.4573 50.6289 25.0543C49.7558 25.5244 48.8155 27.3379 48.5468 28.4797C48.4796 29.2856 48.4125 30.2259 48.4125 31.2334C48.4125 33.5841 48.4796 37.4125 48.6811 42.7185C48.8826 46.8155 51.099 48.7632 56.405 48.7632C60.502 48.7632 63.5244 47.7558 65.4722 45.808V29.3528C65.4722 27.5394 64.8677 26.1289 63.7259 25.1886C66.7483 22.9722 68.2259 20.017 68.2259 16.3229C68.2259 13.1662 67.0841 10.5468 64.8677 8.46473C62.5841 6.38264 59.7632 5.37518 56.4722 5.37518C51.0319 5.37518 46.5319 8.5319 46.5319 14.4423ZM102.827 48.5617C110.82 47.0841 110.887 38.0841 110.82 38.017L110.282 37.8826C109.476 37.6811 108.402 37.2782 107.931 37.0767C108.2 21.7632 108.334 12.5617 108.334 9.53936C108.334 4.0319 105.514 1.27816 99.8718 1.27816C97.5882 1.27816 95.3718 1.68115 93.2225 2.48712C92.3494 2.82294 91.4763 3.15876 90.6703 3.62891C90.6703 4.50205 90.8718 7.12145 90.9389 8.26324C91.1404 10.8826 91.2748 14.2408 91.3419 18.2707C91.2748 18.2035 91.0733 18.0692 90.6031 17.7334C89.73 17.1289 89.5957 16.9946 88.5882 16.3901C87.3121 15.6513 86.1031 15.2483 84.4912 15.2483C78.7822 15.2483 69.5807 18.5394 69.5807 32.2408C69.5807 38.6886 71.9315 43.5916 75.2225 45.9423C78.5136 48.3602 81.6703 49.3677 84.6255 49.3677C87.9166 49.3677 90.8718 48.0244 93.6255 45.2707C95.6404 47.6214 98.0583 48.7632 100.946 48.7632C101.551 48.7632 102.155 48.6961 102.827 48.5617ZM93.9613 32.1737C93.9613 35.8677 92.0807 37.8826 89.73 37.8826C87.1106 37.8826 85.4315 35.1289 85.4315 31.905C85.4315 28.3453 87.3792 26.1961 89.5957 26.1961C92.0136 26.1961 93.9613 28.4125 93.9613 32.1737ZM144.936 48.5617C152.928 47.0841 152.995 38.0841 152.928 38.017L152.391 37.8826C151.585 37.6811 150.51 37.2782 150.04 37.0767C150.309 21.7632 150.443 12.5617 150.443 9.53936C150.443 4.0319 147.622 1.27816 141.981 1.27816C139.697 1.27816 137.481 1.68115 135.331 2.48712C134.458 2.82294 133.585 3.15876 132.779 3.62891C132.779 4.50205 132.981 7.12145 133.048 8.26324C133.249 10.8826 133.384 14.2408 133.451 18.2707C133.384 18.2035 133.182 18.0692 132.712 17.7334C131.839 17.1289 131.704 16.9946 130.697 16.3901C129.421 15.6513 128.212 15.2483 126.6 15.2483C120.891 15.2483 111.69 18.5394 111.69 32.2408C111.69 38.6886 114.04 43.5916 117.331 45.9423C120.622 48.3602 123.779 49.3677 126.734 49.3677C130.025 49.3677 132.981 48.0244 135.734 45.2707C137.749 47.6214 140.167 48.7632 143.055 48.7632C143.66 48.7632 144.264 48.6961 144.936 48.5617ZM136.07 32.1737C136.07 35.8677 134.19 37.8826 131.839 37.8826C129.219 37.8826 127.54 35.1289 127.54 31.905C127.54 28.3453 129.488 26.1961 131.704 26.1961C134.122 26.1961 136.07 28.4125 136.07 32.1737ZM187.112 14.0394C185.5 13.502 184.089 13.2334 182.948 13.2334C181.47 13.2334 180.127 13.5692 178.851 14.2408C178.313 14.5095 177.843 14.8453 177.507 15.1811C176.903 19.6811 176.231 23.9125 175.492 27.8752L174.015 35.1289H173.612C171.462 20.0841 168.171 13.502 162.261 13.502C160.246 13.502 158.231 14.2408 156.216 15.6513C154.134 17.1289 153.127 18.808 153.127 20.6214C153.664 22.0319 155.007 24.8528 157.089 29.017C159.171 33.2483 161.052 37.1438 162.731 40.7035C164.41 44.2632 165.216 46.614 165.216 47.6886C165.216 49.0991 164.477 49.8379 162.933 50.0394C161.119 50.2408 159.776 50.5095 158.768 50.7782C156.821 51.2483 154.739 52.7259 154.739 55.3453C154.739 56.5543 155.074 58.3677 155.679 60.7856C155.948 61.9274 156.283 62.9349 156.686 63.9423C159.171 63.9423 162.194 63.5394 165.686 62.8005C169.985 61.7931 173.545 60.2483 176.433 58.1662C179.052 56.0841 180.933 53.8005 182.074 51.3155C184.425 45.808 186.037 42.114 186.843 40.3005C187.582 38.4871 188.589 36.002 189.731 32.9797C190.873 29.9573 191.612 27.7408 191.948 26.2632C192.283 24.7856 192.418 23.3752 192.418 22.0991C192.418 18.1364 190.671 15.4498 187.112 14.0394ZM214.167 22.3006C214.167 20.9573 214.167 18.7408 214.234 15.5841V9.67369C214.234 4.30055 209.935 1.41249 204.227 1.41249C201.943 1.41249 199.727 1.81548 197.577 2.62145C196.704 2.95727 195.831 3.29309 195.025 3.76324C195.092 10.0095 195.159 15.517 195.227 20.2185C195.227 23.2408 195.294 26.9349 195.361 29.5543C195.361 32.2408 195.428 34.5244 195.495 35.8677V36.808C195.495 44.6662 199.189 48.6289 206.577 48.6289C211.077 48.6289 213.025 45.6065 213.63 44.3304L213.831 43.8603L214.167 22.3006ZM252.159 27.4722C252.159 24.8528 251.823 22.502 250.412 19.5468C248.532 15.3155 244.032 11.9573 235.502 11.8229C226.703 11.6886 221.868 15.6513 219.517 19.614C218.644 20.9573 217.972 22.3677 217.636 23.9125C216.897 27.002 216.696 28.614 216.696 30.4274C216.629 39.6961 221.733 48.6289 236.98 48.6289C243.092 48.6289 247.054 47.8229 248.935 46.4125C250.748 45.002 251.218 43.7259 251.218 41.7782C251.218 41.0394 251.218 40.4349 251.151 40.0991C250.95 38.6214 250.009 37.4797 248.263 36.6737C247.457 36.3379 246.584 36.0692 245.644 35.8677C245.039 36.3379 244.3 36.7408 243.427 37.0767C241.48 37.8155 239.129 38.2185 236.241 38.2185C230.666 38.0841 228.987 35.0617 229.256 34.5916H249.942C251.42 33.8528 252.159 31.502 252.159 27.4722ZM230.062 27.5394C230.465 22.7707 233.554 22.0319 235.166 22.2334C238.457 22.2334 240.271 24.3155 240.271 27.0692V27.5394H230.062ZM289.951 40.5692C288.541 39.9647 287.802 39.2931 287.802 38.4871C287.802 37.4125 287.936 35.7334 288.138 33.517C288.339 31.3005 288.473 29.6886 288.473 28.614C288.473 22.9722 286.593 18.6065 282.899 15.5841C279.205 12.5617 274.503 11.0841 268.929 11.0841C264.832 11.0841 260.869 11.7558 256.973 13.0991C256.503 13.9722 256.235 15.7185 256.235 18.405C256.235 23.2408 258.585 24.6513 262.615 24.6513C264.16 24.6513 268.459 24.1811 269.735 24.1811C273.899 24.1811 275.981 25.4573 275.981 27.9423V28.4125C273.093 27.2707 270.205 26.6662 267.384 26.6662C263.824 26.6662 260.735 27.5394 258.182 29.3528C255.563 31.1662 254.287 33.8528 254.287 37.4125C254.287 40.9722 255.765 43.7259 258.653 45.6737C261.541 47.6214 264.765 48.6289 268.391 48.6289C272.354 48.6289 275.444 47.2856 277.794 44.6662C278.399 45.5394 278.869 46.1438 279.272 46.614C280.078 47.4871 281.824 48.6289 283.973 48.6289C286.66 48.6289 288.339 47.6886 289.078 45.808C289.817 43.9946 289.951 42.7856 289.951 40.5692ZM275.712 38.6214C274.436 39.7632 272.69 40.3005 270.406 40.3005C267.72 40.3005 266.242 38.9573 266.242 37.2782C266.242 35.6662 267.518 34.3901 269.735 34.3901C270.809 34.3901 272.018 34.5916 273.294 34.9946C274.571 35.4647 275.376 35.8005 275.712 36.1364V38.6214ZM291.286 15.92C291.219 15.92 291.152 18.7408 291.085 24.3826C290.95 30.0916 290.883 34.6588 290.883 38.0841C290.883 45.1364 293.234 48.4946 299.883 48.4946C302.637 48.4946 304.853 48.0916 306.532 47.2856C307.204 46.9498 307.741 46.5468 308.077 46.0767V26.2632C310.092 26.2632 311.099 26.7334 311.099 27.6065C311.57 32.3752 313.987 34.7259 318.487 34.7259C320.57 34.7259 322.45 34.1214 324.129 32.9797C324.868 32.5095 325.54 31.905 326.077 31.2334C326.077 30.0244 326.077 29.1513 326.144 28.614C326.144 28.0095 326.211 26.8006 326.279 26.3304V26.0617C326.279 17.3976 322.853 13.0991 316.002 13.0991C309.42 13.0991 307.204 18.002 307.204 18.0692C307.204 17.7334 306.129 13.2334 300.017 13.2334C294.846 13.2334 292.495 14.9125 291.622 15.6513L291.286 15.92ZM328.808 39.7632C328.808 45.6065 331.831 48.5617 337.808 48.5617C340.495 48.5617 342.644 48.2931 344.189 47.6886C344.86 47.4871 345.398 47.1513 345.868 46.7483V27.4722C346.204 26.4647 346.875 25.7259 347.816 25.3229C348.084 25.1886 348.487 25.0543 349.025 24.9871C350.502 24.9871 351.241 25.7931 351.241 27.3379C351.308 27.002 350.905 37.9498 350.905 41.0394C350.905 45.002 353.525 48.6961 359.435 48.6961C362.256 48.6961 364.472 48.1588 366.084 47.1513C366.823 46.6811 367.428 46.1438 367.831 45.5394C367.898 44.1289 367.965 42.1811 368.099 39.8304C368.301 35.0617 368.435 31.1662 368.435 27.6065V25.2558C368.435 22.6364 368.368 21.0916 367.428 18.6065C366.151 15.114 362.726 12.8304 355.674 12.6289C352.853 12.6289 351.04 13.3677 349.159 14.4423C348.42 14.9125 347.883 15.2483 347.547 15.4498C346.943 15.92 345.196 17.2632 344.928 17.4647L344.256 16.1886C343.853 15.3155 343.517 14.711 343.181 14.3752C342.577 13.6364 340.495 12.5617 337.808 12.5617C335.592 12.5617 333.443 12.9647 331.495 13.8379C330.756 14.1737 330.017 14.5767 329.413 15.0468V15.9871C329.413 18.6065 329.346 22.6364 329.144 27.9423C328.943 33.2483 328.808 36.6737 328.808 38.1513V39.7632Z" fill="white"/>
</svg>
